<svg width="25" height="24" viewBox="0 0 25 24" fill="none" xmlns="http://www.w3.org/2000/svg">
  <path d="M9.66641 22C10.2187 22 10.6664 21.5523 10.6664 21C10.6664 20.4477 10.2187 20 9.66641 20C9.11412 20 8.66641 20.4477 8.66641 21C8.66641 21.5523 9.11412 22 9.66641 22Z" stroke="currentColor" stroke-width="2" stroke-linecap="round" stroke-linejoin="round"/>
  <path d="M20.6664 22C21.2187 22 21.6664 21.5523 21.6664 21C21.6664 20.4477 21.2187 20 20.6664 20C20.1141 20 19.6664 20.4477 19.6664 21C19.6664 21.5523 20.1141 22 20.6664 22Z" stroke="currentColor" stroke-width="2" stroke-linecap="round" stroke-linejoin="round"/>
  <path d="M1.66641 1H5.66641L8.66641 17H21.6664" stroke="currentColor" stroke-width="2" stroke-linecap="round" stroke-linejoin="round"/>
  <path d="M8.66641 13H20.6664C20.6664 13 21.1664 5 21.6664 3H6.16641" stroke="currentColor" stroke-width="2" stroke-linecap="round" stroke-linejoin="round"/>
</svg>