<svg width="25" height="24" viewBox="0 0 25 24" fill="none" xmlns="http://www.w3.org/2000/svg">
  <path d="M19.6664 7H5.66641C4.56184 7 3.66641 7.89543 3.66641 9V19C3.66641 20.1046 4.56184 21 5.66641 21H19.6664C20.771 21 21.6664 20.1046 21.6664 19V9C21.6664 7.89543 20.771 7 19.6664 7Z" stroke="currentColor" stroke-width="2" stroke-linecap="round" stroke-linejoin="round"/>
  <path d="M17.6664 7V5C17.6664 4.46957 17.4557 3.96086 17.0806 3.58579C16.7055 3.21071 16.1968 3 15.6664 3H9.66641C9.13597 3 8.62727 3.21071 8.25219 3.58579C7.87712 3.96086 7.66641 4.46957 7.66641 5V7" stroke="currentColor" stroke-width="2" stroke-linecap="round" stroke-linejoin="round"/>
  <path d="M17.6664 15C17.6664 15.5523 17.2187 16 16.6664 16H15.6664C15.1141 16 14.6664 15.5523 14.6664 15C14.6664 14.4477 15.1141 14 15.6664 14H16.6664C17.2187 14 17.6664 14.4477 17.6664 15Z" fill="currentColor"/>
</svg>