<svg width="416" height="416" viewBox="0 0 416 416" fill="none" xmlns="http://www.w3.org/2000/svg">
<g clip-path="url(#clip0_2558_17483)">
<path d="M144.44 192.48C142.253 192.48 140.213 192.12 138.32 191.4C136.453 190.653 134.813 189.613 133.4 188.28C131.987 186.947 130.88 185.387 130.08 183.6C129.307 181.787 128.92 179.827 128.92 177.72C128.92 175.587 129.307 173.627 130.08 171.84C130.88 170.053 131.973 168.507 133.36 167.2C134.773 165.893 136.413 164.88 138.28 164.16C140.147 163.413 142.173 163.04 144.36 163.04C146.573 163.04 148.6 163.387 150.44 164.08C152.28 164.773 153.88 165.733 155.24 166.96L149.92 172.32C149.28 171.627 148.493 171.08 147.56 170.68C146.653 170.28 145.587 170.08 144.36 170.08C143.293 170.08 142.307 170.253 141.4 170.6C140.52 170.947 139.76 171.453 139.12 172.12C138.48 172.787 137.973 173.6 137.6 174.56C137.253 175.493 137.08 176.547 137.08 177.72C137.08 178.92 137.253 180 137.6 180.96C137.973 181.893 138.48 182.693 139.12 183.36C139.76 184.027 140.52 184.547 141.4 184.92C142.307 185.267 143.293 185.44 144.36 185.44C145.56 185.44 146.627 185.253 147.56 184.88C148.52 184.507 149.347 183.96 150.04 183.24L155.4 188.6C153.987 189.827 152.4 190.787 150.64 191.48C148.88 192.147 146.813 192.48 144.44 192.48ZM155.349 192L166.189 163.52H174.349L185.069 192H176.749L168.789 167.8H171.669L163.509 192H155.349ZM162.389 187.2V180.96H178.309V187.2H162.389ZM193.832 180.64V175.12H198.672C199.766 175.12 200.592 174.853 201.152 174.32C201.739 173.787 202.032 173.08 202.032 172.2C202.032 171.32 201.739 170.613 201.152 170.08C200.592 169.547 199.766 169.28 198.672 169.28H193.832V163.52H199.952C201.926 163.52 203.659 163.88 205.152 164.6C206.646 165.32 207.819 166.32 208.672 167.6C209.526 168.88 209.952 170.373 209.952 172.08C209.952 173.787 209.512 175.28 208.632 176.56C207.779 177.84 206.579 178.84 205.032 179.56C203.486 180.28 201.659 180.64 199.552 180.64H193.832ZM187.352 192V163.52H195.352V192H187.352ZM202.712 192L194.952 179.84L202.152 178.28L211.792 192H202.712ZM220.051 192V163.52H228.051V192H220.051ZM211.531 170.32V163.52H236.611V170.32H211.531ZM247.451 192.48C245.024 192.48 242.904 192.133 241.091 191.44C239.304 190.72 237.651 189.587 236.131 188.04L241.131 183.04C242.171 184.027 243.264 184.787 244.411 185.32C245.557 185.827 246.784 186.08 248.091 186.08C249.184 186.08 250.011 185.92 250.571 185.6C251.131 185.253 251.411 184.787 251.411 184.2C251.411 183.613 251.171 183.133 250.691 182.76C250.211 182.36 249.571 182.013 248.771 181.72C247.997 181.4 247.131 181.08 246.171 180.76C245.237 180.44 244.304 180.053 243.371 179.6C242.437 179.147 241.571 178.6 240.771 177.96C239.997 177.293 239.371 176.48 238.891 175.52C238.411 174.533 238.171 173.333 238.171 171.92C238.171 170.08 238.611 168.493 239.491 167.16C240.371 165.827 241.611 164.813 243.211 164.12C244.811 163.4 246.691 163.04 248.851 163.04C250.984 163.04 252.957 163.387 254.771 164.08C256.611 164.747 258.131 165.707 259.331 166.96L254.291 171.96C253.411 171.107 252.531 170.48 251.651 170.08C250.771 169.653 249.811 169.44 248.771 169.44C247.944 169.44 247.277 169.573 246.771 169.84C246.291 170.107 246.051 170.507 246.051 171.04C246.051 171.6 246.291 172.067 246.771 172.44C247.251 172.787 247.877 173.107 248.651 173.4C249.451 173.693 250.317 174 251.251 174.32C252.211 174.64 253.157 175.027 254.091 175.48C255.024 175.907 255.877 176.467 256.651 177.16C257.451 177.827 258.091 178.667 258.571 179.68C259.051 180.693 259.291 181.92 259.291 183.36C259.291 186.267 258.251 188.52 256.171 190.12C254.117 191.693 251.211 192.48 247.451 192.48ZM269.977 182.2L259.137 163.52H268.337L276.537 178.76H269.657L277.857 163.52H286.857L275.937 182.2H269.977ZM269.057 192V179.28H277.057V192H269.057Z" fill="#202020"/>
<path d="M183.825 205.074C177.865 205.074 173.035 209.904 173.035 215.864V288.293C173.035 294.252 177.865 299.082 183.825 299.082C189.784 299.082 194.614 294.252 194.614 288.293V215.864C194.614 209.901 189.784 205.074 183.825 205.074Z" fill="#F76B15"/>
<path d="M139.602 205.074C133.643 205.074 128.812 209.904 128.812 215.864V288.293C128.812 294.252 133.643 299.082 139.602 299.082C145.561 299.082 150.391 294.252 150.391 288.293V215.864C150.391 209.901 145.561 205.074 139.602 205.074Z" fill="#F76B15"/>
<path d="M228.043 205.074C222.084 205.074 217.254 209.904 217.254 215.864V288.293C217.254 294.252 222.084 299.082 228.043 299.082C234.003 299.082 238.833 294.252 238.833 288.293V215.864C238.833 209.901 234.003 205.074 228.043 205.074Z" fill="#F76B15"/>
<path d="M272.258 205.074C266.299 205.074 261.469 209.904 261.469 215.864V288.293C261.469 294.252 266.299 299.082 272.258 299.082C278.218 299.082 283.048 294.252 283.048 288.293V215.864C283.048 209.901 278.218 205.074 272.258 205.074Z" fill="#F76B15"/>
<path d="M259.282 139.595H152.585L174.782 107.129L174.783 107.128C181.261 97.6507 178.835 84.7192 169.358 78.2348L169.357 78.2338C159.866 71.7429 146.933 74.188 140.459 83.6596C140.459 83.6605 140.458 83.6615 140.457 83.6625L102.101 139.758C82.7803 141.563 67.6586 157.826 67.6586 177.622C67.6586 188.24 72.0815 197.678 78.9454 204.484L94.7412 297.889C95.2327 312.508 107.241 324.206 121.974 324.206H289.89C304.629 324.206 316.631 312.503 317.123 297.889L332.918 204.487C339.788 197.681 344.206 188.241 344.206 177.626C344.206 157.833 329.088 141.571 309.771 139.762L271.408 83.6628L271.408 83.662C264.924 74.1835 251.99 71.7657 242.518 78.2328L242.51 78.2384C233.032 84.7228 230.607 97.6543 237.084 107.131L237.086 107.133L259.282 139.595ZM10 207.998C10 98.6496 98.6464 10 207.995 10C317.343 10 406 98.6503 406 207.998C406 317.343 317.343 406 207.995 406C98.6468 406 10 317.344 10 207.998Z" fill="#F76B15" stroke="#202020" stroke-width="20"/>
</g>
<defs>
<clipPath id="clip0_2558_17483">
<rect width="416" height="416" rx="208" fill="white"/>
</clipPath>
</defs>
</svg>
